<svg xmlns="http://www.w3.org/2000/svg" id="Layer_1" viewBox="0 0 220 40"> <defs> <style>.cls-1{fill:#a50575;}</style> </defs> <title>sobha city mall-Artboard 1</title> <path class="cls-1" d="M217.27,12a1.66,1.66,0,0,1-.17-.19c-.05,0-.05,0-.05,0A6.16,6.16,0,0,0,214,10.26h-.27a4.15,4.15,0,0,0-.64,0,4.71,4.71,0,0,0-.73,0l-25.4.1a9.56,9.56,0,0,0-5.89,2.88,10,10,0,0,0,0,14.09,9.69,9.69,0,0,0,5.44,2.84l29,.09h.14a3.16,3.16,0,0,0,2.24-.91,3.22,3.22,0,0,0,.92-2.24,3.13,3.13,0,0,0-.92-2.24,3,3,0,0,0-1.55-.83,1.18,1.18,0,0,0-.36,0H189.46a3.54,3.54,0,0,1-2.1-1.15A3.88,3.88,0,0,1,186.22,20a4,4,0,0,1,.64-2.21v-.08a1.46,1.46,0,0,0,.14-.19,2.53,2.53,0,0,1,.36-.42,3.49,3.49,0,0,1,1.59-1L213.48,16a2.07,2.07,0,0,1,.55,0,.76.76,0,0,1,.64.22.78.78,0,0,1,.32.64.74.74,0,0,1-.32.6,1.13,1.13,0,0,1-.64.27H188l3.84,4.44,20.73-.09h.46a5.86,5.86,0,0,0,4.2-1.74,6,6,0,0,0,0-8.42"></path> <path class="cls-1" d="M175.3,26.66A3.78,3.78,0,0,0,174.21,24a3.21,3.21,0,0,0-2.15-1H149.18V4.14a3.75,3.75,0,0,0-1.06-1.87,3.54,3.54,0,0,0-2.73-1.14,3.72,3.72,0,0,0-2.74,1.14,3.82,3.82,0,0,0-1.14,2.65V5l0,23.15a2.7,2.7,0,0,0,.68,1.33,2.44,2.44,0,0,0,1.83.73,1.9,1.9,0,0,0,.51-.05l27.12.14a1.05,1.05,0,0,0,.4-.05.66.66,0,0,0,.28,0c.1,0,.18-.05.28-.05a4.06,4.06,0,0,0,1.55-1,3.86,3.86,0,0,0,1.08-2.56"></path> <path class="cls-1" d="M127.45,17.74a3,3,0,0,1,1.51.76,3.29,3.29,0,0,1,.87,2,2.79,2.79,0,0,1-.79,1.84,2.84,2.84,0,0,1-1.27.67H106.21l6.17,7.29h18.48a10.6,10.6,0,0,0,4.8-2.75,9.83,9.83,0,0,0,0-14.28,10,10,0,0,0-5.56-2.83l-33.62-.09.15,23.56v2.15a3.26,3.26,0,0,0,1.09,1.82,4,4,0,0,0,2.69,1,4,4,0,0,0,2.65-1,3,3,0,0,0,1.1-2.23l0-2.62q-.07-7.13,0-14.17h0V17.74L127,17.68c.15,0,.28.06.46.06"></path> <path class="cls-1" d="M93.73,11.13a2.53,2.53,0,0,0-1.87-.78H44V27.19a.5.5,0,0,0,0,.22,4.59,4.59,0,0,0,1.05,1.83,4.28,4.28,0,0,0,3.05,1.22,4.06,4.06,0,0,0,3-1.22,4.17,4.17,0,0,0,1.28-2.93V17.63H64.87v10.1a4.69,4.69,0,0,0,1,1.52,4.2,4.2,0,0,0,3,1.22,4.09,4.09,0,0,0,3-1.22A4.33,4.33,0,0,0,73,27.51V17.63H86.38v9.82a4.19,4.19,0,0,0,1,1.75,4.08,4.08,0,0,0,3,1.23,3.81,3.81,0,0,0,2.87-1.23,4,4,0,0,0,1.24-2.89V12.92l-.05-.42a2.44,2.44,0,0,0-.69-1.37"></path> <path class="cls-1" d="M36.43,29.47A3.25,3.25,0,0,0,42,27.64V10.35l-32.6.05A9.43,9.43,0,0,0,4,13.23a9.58,9.58,0,0,0-3,7.14,9.58,9.58,0,0,0,3,7.14,9.92,9.92,0,0,0,5.15,2.88,2.8,2.8,0,0,1,.6.09H28l6.17-7.13H12.37c-.14,0-.23,0-.37-.09a2.77,2.77,0,0,1-1.55-.79,2.71,2.71,0,0,1-.83-2,2.67,2.67,0,0,1,.83-2,3,3,0,0,1,1.46-.82c.18,0,.31-.05.46-.05H35.48v9.61a3,3,0,0,0,1,2.24"></path> </svg>